<svg xmlns="http://www.w3.org/2000/svg" width="24" height="24" viewBox="0 0 24 24" fill="none">
  <path d="M5.76 2C5.26616 1.99974 4.7771 2.09681 4.3208 2.28568C3.8645 2.47454 3.44989 2.75149 3.10069 3.10069C2.75149 3.44989 2.47454 3.8645 2.28568 4.3208C2.09681 4.7771 1.99974 5.26616 2 5.76V18.24C1.99974 18.7338 2.09681 19.2229 2.28568 19.6792C2.47454 20.1355 2.75149 20.5501 3.10069 20.8993C3.44989 21.2485 3.8645 21.5255 4.3208 21.7143C4.7771 21.9032 5.26616 22.0003 5.76 22H18.24C18.7338 22.0003 19.2229 21.9032 19.6792 21.7143C20.1355 21.5255 20.5501 21.2485 20.8993 20.8993C21.2485 20.5501 21.5255 20.1355 21.7143 19.6792C21.9032 19.2229 22.0003 18.7338 22 18.24V5.76C22.0003 5.26616 21.9032 4.7771 21.7143 4.3208C21.5255 3.8645 21.2485 3.44989 20.8993 3.10069C20.5501 2.75149 20.1355 2.47454 19.6792 2.28568C19.2229 2.09681 18.7338 1.99974 18.24 2H5.76ZM17.494 5.164C17.662 5.207 17.828 5.279 17.887 5.418C17.717 5.919 17.728 6.466 17.703 6.971C17.953 6.981 18.199 6.994 18.609 6.994C18.813 6.994 19.049 6.994 19.311 6.986C19.441 7.015 19.457 7.206 19.5 7.301C19.4651 7.36547 19.4214 7.42472 19.37 7.477H17.687C17.68 7.694 17.67 7.87 17.67 8.197C17.67 8.402 17.67 8.636 17.676 8.898C17.647 9.03 17.458 9.044 17.363 9.088C17.2989 9.0527 17.2399 9.00861 17.188 8.957V7.473C17.069 7.471 16.977 7.468 16.816 7.469C16.662 7.469 16.487 7.469 16.276 7.477C16.144 7.477 16.021 7.454 15.729 7.373C15.6864 7.3576 15.6491 7.33028 15.6217 7.29428C15.5942 7.25829 15.5776 7.21514 15.574 7.17C15.618 7.002 15.692 6.834 15.83 6.775C16.267 6.923 16.738 6.917 17.187 6.935C17.19 6.78 17.195 6.635 17.195 6.405C17.195 6.251 17.195 6.076 17.187 5.865C17.187 5.733 17.207 5.608 17.289 5.316C17.3049 5.27361 17.3327 5.23671 17.3691 5.20975C17.4054 5.18278 17.4488 5.1669 17.494 5.164ZM7.534 6.801C8.82395 6.77278 10.1094 6.96279 11.336 7.363C12.144 7.613 12.932 7.923 13.693 8.289C14.2822 8.5799 14.8548 8.9034 15.408 9.258C15.548 9.35 16.358 9.953 16.486 10.045C16.746 10.26 17.093 10.563 17.344 10.815C17.8873 11.3389 18.3482 11.9421 18.711 12.604C18.781 12.744 18.836 12.882 18.931 13.041C19.007 13.193 19.069 13.349 19.115 13.511C19.139 13.604 19.165 13.744 19.174 13.756C19.22 13.756 19.276 14.043 19.264 14.154C19.2721 14.4209 19.253 14.688 19.207 14.951L19.223 14.928C19.1874 15.1117 19.1341 15.2915 19.064 15.465C18.98 15.6524 18.8876 15.836 18.787 16.015C18.5702 16.3684 18.3079 16.6918 18.007 16.977C17.0429 17.7071 15.8963 18.1576 14.693 18.279C13.8615 18.3789 13.0198 18.356 12.195 18.211C11.9617 18.1664 11.7293 18.1171 11.498 18.063V18.35C11.485 18.4331 11.4621 18.5143 11.43 18.592C11.4004 18.6483 11.3582 18.697 11.3067 18.7343C11.2552 18.7716 11.1957 18.7964 11.133 18.807C10.9646 18.8521 10.7864 18.8437 10.623 18.783C10.5057 18.723 10.4067 18.6326 10.3363 18.5213C10.266 18.4099 10.2268 18.2817 10.223 18.15C10.188 17.92 10.146 17.535 10.146 17.535L9.776 17.355C9.28861 17.1144 8.82317 16.8316 8.385 16.51C8.14054 16.3166 7.90145 16.1165 7.668 15.91C7.35836 15.6387 7.09195 15.3217 6.878 14.97C6.79398 14.8474 6.74154 14.7059 6.72531 14.5582C6.70909 14.4104 6.72959 14.2609 6.785 14.123C7.07138 13.6964 7.49192 13.3776 7.98 13.217C8.51392 12.9979 9.06739 12.8298 9.633 12.715C9.80006 12.692 9.96618 12.6626 10.131 12.627L10.146 12.611C10.1632 12.4148 10.1685 12.2178 10.162 12.021C10.162 11.869 10.279 10.883 10.312 10.668C10.344 10.439 10.407 10.214 10.502 10.002C10.5316 9.97162 10.5713 9.95305 10.6136 9.94973C10.6559 9.94642 10.698 9.9586 10.732 9.984C11.196 10.271 11.322 11.245 11.357 11.74C11.374 12.04 11.393 12.504 11.393 12.504C11.393 12.504 11.913 12.485 12.234 12.504C12.563 12.52 12.89 12.553 13.214 12.604C13.799 12.686 14.37 12.844 14.914 13.07C15.295 13.246 15.6 13.551 15.771 13.934C15.8265 14.0669 15.8491 14.2111 15.8369 14.3546C15.8247 14.498 15.7781 14.6364 15.701 14.758C15.6123 14.9184 15.486 15.0548 15.3329 15.1555C15.1797 15.2562 15.0044 15.3182 14.822 15.336C14.605 15.3396 14.3902 15.292 14.195 15.197C14.1759 15.1779 14.1653 15.152 14.1653 15.125C14.1653 15.098 14.1759 15.0721 14.195 15.053C14.195 15.035 14.395 14.937 14.496 14.879C14.5493 14.8539 14.5967 14.8178 14.635 14.773C14.725 14.694 14.813 14.612 14.805 14.506C14.793 14.402 14.647 14.291 14.515 14.238C13.5188 13.9129 12.4798 13.7376 11.432 13.718L11.502 17.08C11.502 17.08 11.78 17.131 12 17.166C12.13 17.182 12.668 17.236 12.807 17.236C13.935 17.308 15.0648 17.1258 16.113 16.703C16.5482 16.5161 16.9385 16.2386 17.258 15.889C17.4638 15.6502 17.6191 15.3722 17.7147 15.0718C17.8102 14.7714 17.844 14.4548 17.814 14.141C17.6747 13.376 17.3391 12.6603 16.84 12.064C15.6151 10.6611 14.0672 9.57729 12.33 8.906C10.7406 8.23273 9.04269 7.85228 7.318 7.783C6.67369 7.75618 6.02848 7.8062 5.396 7.932C5.327 7.947 5.255 7.973 5.186 7.992C5.12835 8.00087 5.07413 8.02504 5.029 8.062L5.004 8.084L5.063 8.107C5.113 8.137 5.342 8.146 5.453 8.172C5.50355 8.17759 5.55233 8.19385 5.59612 8.21971C5.63991 8.24557 5.6777 8.28043 5.707 8.322C5.72762 8.34976 5.73875 8.38342 5.73875 8.418C5.73875 8.45258 5.72762 8.48624 5.707 8.514C5.592 8.653 5.167 8.629 4.988 8.602C4.803 8.579 4.55 8.512 4.506 8.338C4.47963 8.13633 4.5335 7.93236 4.656 7.77C4.75425 7.59944 4.88761 7.45169 5.04724 7.33653C5.20688 7.22137 5.38915 7.14143 5.582 7.102C6.21994 6.93319 6.87388 6.83196 7.533 6.8L7.534 6.801ZM10.141 13.736C10.141 13.736 9.648 13.77 9.303 13.803C8.71645 13.8656 8.13718 13.9838 7.573 14.156C7.433 14.206 7.142 14.332 7.123 14.479C7.12075 14.5524 7.13504 14.6254 7.16481 14.6926C7.19459 14.7598 7.23908 14.8194 7.295 14.867C7.355 14.937 7.695 15.264 7.789 15.342C8.346 15.782 8.956 16.151 9.604 16.442C9.812 16.527 10.15 16.648 10.15 16.648C10.15 16.648 10.131 15.678 10.14 14.728L10.141 13.736Z" fill="black"/>
</svg>