<svg width="41" height="11" viewBox="0 0 41 11" fill="none" xmlns="http://www.w3.org/2000/svg">
<g id="logos:netflix" clip-path="url(#clip0_6_52)">
<path id="Vector" d="M27.2791 0V7.9872C28.2688 8.03303 29.256 8.08843 30.2404 8.15379V9.84723C28.6791 9.7436 27.1162 9.66497 25.5524 9.61137V0H27.2791ZM40.9999 0.000956522L38.7515 5.18961L40.9993 10.9637L40.9969 10.9647C40.3415 10.8719 39.6855 10.7836 39.0289 10.6998L37.7666 7.45912L36.4923 10.399C35.8878 10.3325 35.2829 10.2698 34.6776 10.2109L36.8694 5.15486L34.8621 0.00103623H36.7299L37.8538 2.88527L39.1035 0.000956522H40.9999ZM19.6265 9.52744V0.000876812H24.4464V1.70954H21.3531V3.92389H23.6936V5.61733H21.3531V9.52712L19.6265 9.52744ZM13.1792 1.70962V0.000797101H18.5196V1.70954H16.7126V9.57375C16.1363 9.58889 15.5606 9.60659 14.9861 9.62819V1.70962H13.1792ZM7.27644 10.1205V0.00111594H12.0723V1.7097H9.00284V4.02417C9.70801 4.01516 10.7107 4.00504 11.3345 4.00647V5.70007C10.5536 5.69051 9.67221 5.71075 9.00284 5.71737V8.28117C10.0252 8.20097 11.0485 8.13135 12.0723 8.07233V9.76593C10.4718 9.85784 8.87299 9.97609 7.27644 10.1206M3.88937 6.20575L3.88929 0.000797101H5.61594V10.2802C4.98476 10.3448 4.35471 10.4136 3.72585 10.4862L1.72638 4.76858V10.7311C1.1504 10.8057 0.574869 10.8837 -0.000183105 10.9651V0.000956522H1.6407L3.88937 6.20575ZM31.6648 9.94934V0.000956522H33.3915V10.0913C32.8166 10.0403 32.2413 9.99318 31.6648 9.94934Z" fill="#DB202C"/>
</g>
<defs>
<clipPath id="clip0_6_52">
<rect width="41" height="11" fill="white"/>
</clipPath>
</defs>
</svg>
