<svg xmlns="http://www.w3.org/2000/svg" width="46" height="10" viewBox="0 0 46 10" fill="none">
  <path d="M3.45957 5.77243C3.32541 5.58843 3.18357 5.43701 3.18357 5.09393V3.95543C3.18357 3.47051 3.21807 3.02776 2.86157 2.69426C2.58174 2.42593 2.11599 2.3301 1.75949 2.3301C1.06374 2.3301 0.285575 2.59076 0.122658 3.45135C0.105408 3.54143 0.172491 3.58934 0.231908 3.60468L0.941075 3.68134C1.00816 3.67751 1.05607 3.61234 1.06949 3.54718C1.13082 3.25009 1.37807 3.10634 1.65791 3.10634C1.80932 3.10634 1.97991 3.16384 2.06807 3.29609C2.17157 3.44751 2.15816 3.65259 2.15816 3.82701V3.92284C1.73266 3.96884 1.17874 4.00143 0.780075 4.17584C0.542968 4.27096 0.340899 4.43678 0.20133 4.65076C0.0617623 4.86475 -0.00853544 5.11651 -8.59151e-06 5.37184C-8.59151e-06 6.13276 0.479158 6.51226 1.09632 6.51226C1.61766 6.51226 1.90132 6.38959 2.30382 5.98134C2.43607 6.17301 2.47824 6.26884 2.72166 6.47009C2.74898 6.4847 2.78009 6.49069 2.81088 6.48727C2.84167 6.48385 2.87071 6.47118 2.89416 6.45093L3.45766 5.96793C3.51899 5.91809 3.50749 5.83951 3.45957 5.77243ZM2.15624 4.66843C2.15624 4.95401 2.16391 5.18976 2.02207 5.44468C1.90516 5.64976 1.71924 5.77626 1.51416 5.77626C1.23241 5.77626 1.06949 5.56159 1.06949 5.24534C1.06949 4.62243 1.62724 4.50935 2.15816 4.50935L2.15624 4.66843ZM13.0563 5.77243C12.9222 5.58843 12.7803 5.43701 12.7803 5.09393V3.95543C12.7803 3.47051 12.8148 3.02776 12.4583 2.69426C12.1766 2.42593 11.7108 2.3301 11.3562 2.3301C10.6586 2.3301 9.88041 2.59076 9.71941 3.45135C9.70024 3.54143 9.76924 3.59126 9.82866 3.60468L10.5378 3.68134C10.603 3.67751 10.6528 3.61234 10.6643 3.54718C10.7257 3.25009 10.9748 3.10634 11.2527 3.10634C11.4042 3.10634 11.5747 3.16384 11.6629 3.29609C11.7664 3.44751 11.753 3.65259 11.753 3.82701V3.92284C11.3294 3.97076 10.7736 4.00143 10.3768 4.17584C10.1392 4.27042 9.93656 4.43606 9.7966 4.65012C9.65663 4.86418 9.58617 5.11623 9.59483 5.37184C9.59483 6.13276 10.074 6.51226 10.6912 6.51226C11.2125 6.51226 11.4962 6.38959 11.8987 5.98134C12.0309 6.17301 12.075 6.26884 12.3184 6.47009C12.3457 6.48497 12.3768 6.49111 12.4077 6.48768C12.4385 6.48425 12.4676 6.47142 12.4909 6.45093V6.45285C12.6385 6.32251 12.9049 6.09251 13.0544 5.96793C13.1119 5.91809 13.1062 5.83951 13.0563 5.77243ZM11.6169 5.44468C11.5 5.64976 11.3141 5.77626 11.109 5.77626C10.8272 5.77626 10.6643 5.56159 10.6643 5.24534C10.6643 4.62243 11.224 4.50935 11.753 4.50935V4.66843C11.753 4.95401 11.7607 5.18976 11.6169 5.44468ZM21.5069 6.46051H20.7767C20.7421 6.4586 20.7094 6.44374 20.6853 6.41888C20.6611 6.39402 20.6472 6.36099 20.6463 6.32635L20.6444 2.56968C20.6478 2.53512 20.6641 2.5031 20.69 2.48001C20.7159 2.45691 20.7496 2.44445 20.7843 2.44509H21.4628C21.493 2.44624 21.522 2.45712 21.5455 2.47612C21.569 2.49513 21.5857 2.52122 21.5932 2.55051V3.12551H21.6085C21.8136 2.61184 22.0992 2.36651 22.6052 2.36651C22.7739 2.35814 22.9418 2.39451 23.0919 2.47192C23.242 2.54934 23.369 2.66505 23.46 2.80734C23.6517 3.11018 23.6517 3.61426 23.6517 3.97843V6.34359C23.6461 6.37692 23.6287 6.40712 23.6026 6.42861C23.5766 6.4501 23.5436 6.46143 23.5098 6.46051H22.7757C22.7438 6.45911 22.7134 6.44669 22.6897 6.42537C22.6659 6.40405 22.6503 6.37515 22.6454 6.34359V4.30234C22.6454 3.89218 22.6933 3.29226 22.1892 3.29226C22.0973 3.29574 22.0083 3.32585 21.9331 3.37892C21.8579 3.432 21.7997 3.50576 21.7657 3.59126C21.6754 3.81695 21.6355 4.05963 21.6487 4.30234V6.32635C21.6472 6.36278 21.6316 6.39719 21.6051 6.42225C21.5786 6.44731 21.5434 6.46104 21.5069 6.46051ZM18.423 2.36651C19.5097 2.36651 20.0962 3.29993 20.0962 4.48443C20.0962 5.63059 19.4484 6.54101 18.423 6.54101C17.3573 6.54101 16.7747 5.6076 16.7747 4.4461C16.7747 3.27693 17.3631 2.36651 18.423 2.36651ZM18.4307 3.13318C17.8902 3.13318 17.8557 3.86918 17.8557 4.32726C17.8557 4.78534 17.848 5.76476 18.423 5.76476C18.9903 5.76476 19.0172 4.97509 19.0172 4.49401C19.0292 4.15825 18.9924 3.82252 18.9079 3.49734C18.8255 3.23668 18.6626 3.13318 18.4287 3.13318M4.89516 6.46051H4.16299C4.1299 6.45933 4.09833 6.4463 4.07405 6.42378C4.04977 6.40126 4.0344 6.37076 4.03074 6.33784V2.58118C4.03074 2.50451 4.09591 2.44701 4.17257 2.44701H4.85491C4.92582 2.44893 4.98332 2.50451 4.98907 2.57159V3.06226H5.00249C5.17882 2.58693 5.51424 2.36651 5.96466 2.36651C6.42274 2.36651 6.71024 2.58693 6.91533 3.06226C6.98806 2.8541 7.12514 2.67449 7.30673 2.54941C7.48832 2.42433 7.705 2.36027 7.92541 2.36651C8.23208 2.36651 8.56749 2.49301 8.77258 2.77668C9.00641 3.09293 8.95849 3.55293 8.95849 3.95543V6.32635C8.95849 6.4011 8.89333 6.46051 8.81666 6.46051H8.08449C8.04989 6.4586 8.01727 6.44374 7.99313 6.41888C7.96898 6.39402 7.95507 6.36099 7.95416 6.32635V4.33301C7.95416 4.17585 7.96758 3.78101 7.93308 3.63151C7.87749 3.37851 7.71458 3.30568 7.50183 3.30568C7.40681 3.30883 7.3148 3.33973 7.23714 3.39456C7.15948 3.4494 7.09958 3.52578 7.06483 3.61426C6.98816 3.80593 6.99774 4.12026 6.99774 4.33493V6.32635C6.99774 6.40301 6.93449 6.46051 6.85591 6.46051H6.12374C6.08914 6.4586 6.05652 6.44374 6.03238 6.41888C6.00823 6.39402 5.99432 6.36099 5.99341 6.32635V4.33301C5.99341 3.91518 6.06049 3.29801 5.54107 3.29801C5.01591 3.29801 5.03508 3.89985 5.03508 4.33301V6.32635C5.03509 6.34446 5.03144 6.36239 5.02434 6.37905C5.01724 6.39572 5.00684 6.41077 4.99377 6.42331C4.98069 6.43584 4.96522 6.4456 4.94827 6.452C4.93132 6.45839 4.91325 6.46129 4.89516 6.46051ZM13.6716 3.10826V2.57159C13.6716 2.53601 13.6857 2.50188 13.7109 2.47672C13.736 2.45156 13.7702 2.43743 13.8057 2.43743H16.215C16.2917 2.43743 16.353 2.49109 16.353 2.57159V3.03159C16.353 3.10826 16.2878 3.20984 16.1728 3.36893L14.927 5.14951C15.387 5.13801 15.8777 5.20701 16.2993 5.44276C16.3932 5.49643 16.4182 5.57693 16.4258 5.65359V6.22668C16.4258 6.30335 16.3396 6.39535 16.2495 6.34935C15.856 6.1469 15.4198 6.04161 14.9773 6.04227C14.5348 6.04294 14.0989 6.14955 13.7061 6.35318C13.6237 6.39726 13.5355 6.30718 13.5355 6.22859V5.68426C13.5355 5.59801 13.5355 5.44851 13.6256 5.31626L15.0688 3.24434H13.8115C13.7936 3.24486 13.7757 3.24177 13.759 3.23525C13.7422 3.22874 13.727 3.21894 13.7141 3.20643C13.7013 3.19392 13.691 3.17895 13.6841 3.16242C13.6771 3.14589 13.6735 3.12812 13.6735 3.11018M15.2394 7.25018C15.0631 7.02593 14.0779 7.14476 13.6332 7.19651C13.4991 7.21376 13.4799 7.09684 13.6007 7.01059C14.3865 6.45859 15.6764 6.61768 15.824 6.80359C15.9773 6.98951 15.7857 8.28134 15.0477 8.89851C14.9347 8.99434 14.8273 8.94259 14.8772 8.81801C15.0439 8.40401 15.4138 7.47634 15.2394 7.25018ZM14.6663 7.90376C13.2921 8.91768 11.3007 9.45626 9.58524 9.45626C7.29324 9.46828 5.07932 8.62413 3.37716 7.08918C3.24874 6.97418 3.36374 6.8151 3.51899 6.90518C5.40995 7.98646 7.55071 8.55469 9.72899 8.55351C11.2527 8.55351 12.926 8.23534 14.467 7.58176C14.6989 7.48593 14.8944 7.7351 14.6663 7.90376ZM44.4322 6.57551C43.7767 6.57551 43.2745 6.39535 42.9218 6.03693C42.5711 5.6766 42.3947 5.16101 42.3947 4.49018C42.3947 3.80401 42.5749 3.26351 42.9333 2.87251C43.2937 2.48151 43.792 2.28601 44.4322 2.28601C44.9228 2.28601 45.3081 2.40485 45.586 2.64251C45.8639 2.8821 46.0019 3.19834 46.0019 3.59509C46.0116 3.77124 45.9754 3.94689 45.8968 4.10482C45.8182 4.26275 45.6998 4.39752 45.5534 4.49593C45.2544 4.69718 44.8155 4.79876 44.2347 4.79876C43.9338 4.79876 43.6712 4.77001 43.4489 4.71251C43.4815 5.0671 43.5888 5.32009 43.7709 5.47343C43.953 5.62676 44.229 5.70343 44.5989 5.70343C44.7465 5.70343 44.8902 5.69384 45.0302 5.67468C45.1701 5.65551 45.3656 5.61718 45.6128 5.55201C45.6413 5.5427 45.671 5.53753 45.701 5.53668C45.7911 5.53668 45.8352 5.59801 45.8352 5.71876V6.08293C45.8352 6.16918 45.8237 6.22859 45.8007 6.26118C45.764 6.30488 45.7154 6.33686 45.6607 6.35318C45.269 6.50221 44.8532 6.57759 44.4341 6.57551M44.1715 4.08576C44.4398 4.08576 44.6353 4.04551 44.758 3.96309C44.8787 3.88068 44.9401 3.75609 44.9401 3.58743C44.9401 3.25393 44.7407 3.08909 44.3459 3.08909C43.838 3.08909 43.5447 3.39959 43.4642 4.02251C43.6751 4.06468 43.9108 4.08576 44.1715 4.08576ZM35.7056 6.45668C35.6366 6.45668 35.5848 6.44134 35.5522 6.40876C35.5216 6.37809 35.5062 6.32634 35.5062 6.25926V2.60418C35.5062 2.52943 35.5216 2.47959 35.5542 2.45084C35.5848 2.42018 35.6366 2.40676 35.7056 2.40676H36.2748C36.3975 2.40676 36.4703 2.46426 36.4972 2.57926L36.5604 2.79393C36.7957 2.63231 37.0499 2.50034 37.3175 2.40101C37.5417 2.32434 37.7737 2.28601 38.0113 2.28601C38.4867 2.28601 38.8221 2.45659 39.0176 2.79393C39.2859 2.61376 39.5408 2.48535 39.7785 2.40676C40.0162 2.32626 40.2634 2.28793 40.5164 2.28793C40.8863 2.28793 41.1719 2.38951 41.377 2.59459C41.5802 2.80159 41.6817 3.09101 41.6817 3.46093V6.25926C41.6817 6.32634 41.6664 6.37809 41.6377 6.40876C41.6089 6.44134 41.5572 6.45668 41.4843 6.45668H40.7215C40.6544 6.45668 40.6027 6.44134 40.572 6.40876C40.5394 6.37809 40.5241 6.32634 40.5241 6.25926V3.71393C40.5241 3.35551 40.3631 3.17534 40.0411 3.17534C39.7536 3.17534 39.4661 3.24434 39.1767 3.38043V6.25926C39.1767 6.32826 39.1613 6.37809 39.1326 6.40876C39.1038 6.44134 39.0521 6.45668 38.9792 6.45668H38.2183C38.1493 6.45668 38.0995 6.44134 38.065 6.40876C38.0343 6.37809 38.019 6.32826 38.019 6.25926V3.71393C38.019 3.35551 37.858 3.17534 37.536 3.17534C37.2326 3.17695 36.9339 3.24983 36.6639 3.3881V6.25926C36.6639 6.32826 36.6486 6.37809 36.6198 6.40876C36.5911 6.44134 36.5393 6.45668 36.4665 6.45668H35.7056ZM33.9461 1.78001C33.7697 1.78829 33.5968 1.72861 33.4631 1.61326C33.4018 1.55557 33.3537 1.48523 33.3223 1.40713C33.2908 1.32902 33.2767 1.24502 33.281 1.16093C33.281 0.969261 33.3404 0.819761 33.4631 0.710511C33.5967 0.594993 33.7696 0.535289 33.9461 0.543761C34.1225 0.535486 34.2953 0.595166 34.4291 0.710511C34.5517 0.819761 34.6131 0.971177 34.6131 1.16093C34.6131 1.35068 34.5517 1.50209 34.4291 1.61326C34.2953 1.72861 34.1225 1.78829 33.9461 1.78001ZM33.5666 6.45668C33.4976 6.45668 33.4477 6.44134 33.4152 6.40876C33.3826 6.37809 33.3672 6.32826 33.3672 6.25926V2.60418C33.3672 2.52943 33.3826 2.47959 33.4152 2.45084C33.4477 2.42018 33.4976 2.40676 33.5666 2.40676H34.3275C34.4003 2.40676 34.4521 2.42018 34.4808 2.44893C34.5096 2.47768 34.5249 2.52943 34.5249 2.60418V6.25926C34.5249 6.32826 34.5096 6.37809 34.4808 6.40876C34.4521 6.44134 34.4003 6.45668 34.3275 6.45668H33.5666ZM30.3983 6.45668C30.3293 6.45668 30.2795 6.44134 30.2469 6.40876C30.2162 6.37809 30.2009 6.32826 30.2009 6.25926V2.60418C30.2009 2.52943 30.2162 2.47959 30.2469 2.45084C30.2795 2.42018 30.3293 2.40676 30.3983 2.40676H30.9695C31.0902 2.40676 31.165 2.46426 31.1899 2.57926L31.2934 3.0086C31.4626 2.80986 31.6649 2.6419 31.8914 2.51218C32.0765 2.41527 32.2824 2.36525 32.4913 2.36651H32.6025C32.6753 2.36651 32.729 2.38184 32.7597 2.41059C32.7922 2.43934 32.8076 2.49109 32.8076 2.56393V3.23093C32.8076 3.29993 32.7922 3.34976 32.7635 3.38043C32.7347 3.41301 32.683 3.42834 32.6102 3.42834C32.5622 3.42796 32.5142 3.4254 32.4664 3.42068C32.3924 3.41497 32.3183 3.41242 32.2441 3.41301C32.1233 3.41301 31.9757 3.43026 31.8013 3.46476C31.6489 3.49232 31.4998 3.53601 31.3567 3.59509V6.25926C31.3567 6.32826 31.3432 6.37809 31.3145 6.40876C31.2838 6.44134 31.2321 6.45668 31.1592 6.45668H30.3983ZM25.6507 8.08968C25.5817 8.08968 25.5319 8.07434 25.4993 8.04559C25.4687 8.01684 25.4533 7.96509 25.4533 7.89226V2.60418C25.4533 2.52943 25.4687 2.47959 25.4993 2.45084C25.5319 2.42018 25.5817 2.40676 25.6507 2.40676H26.2219C26.3427 2.40676 26.4174 2.46426 26.4423 2.57926L26.4998 2.78626C26.6659 2.62857 26.8613 2.50486 27.0748 2.42209C27.2922 2.33399 27.5245 2.28844 27.7591 2.28793C28.2708 2.28793 28.6791 2.47384 28.9762 2.84951C29.2752 3.22518 29.4247 3.73118 29.4247 4.37134C29.4247 4.81218 29.3499 5.1936 29.2023 5.52135C29.0746 5.82394 28.8665 6.08578 28.6005 6.27843C28.3447 6.45579 28.0396 6.54831 27.7284 6.54293C27.5178 6.54457 27.3084 6.51021 27.1093 6.44134C26.926 6.37899 26.7567 6.28132 26.611 6.15384V7.89226C26.611 7.96509 26.5957 8.01684 26.5669 8.04559C26.5362 8.07434 26.4864 8.08968 26.4117 8.08968H25.6507ZM27.3872 5.67276C27.6824 5.67276 27.9009 5.57118 28.0389 5.37184C28.1807 5.17059 28.2497 4.85434 28.2497 4.41926C28.2497 3.98034 28.1827 3.66218 28.0447 3.46093C27.9067 3.25968 27.6882 3.16001 27.3872 3.16001C27.1134 3.15906 26.8444 3.2326 26.6091 3.37276V5.4581C26.8431 5.60153 27.1128 5.67594 27.3872 5.67276Z" fill="black"/>
</svg>