<svg xmlns="http://www.w3.org/2000/svg" width="24" height="24" viewBox="0 0 24 24" fill="none">
  <g clip-path="url(#clip0_32_66)">
    <path d="M7.042 16.896H4.414V13.142H2.708V16.896H0.01L0 7.22H2.708V10.82H4.414V7.22H7.042V16.896ZM19.085 16.942C21.795 16.94 24 14.689 24 11.978C24.004 11.3312 23.8796 10.6901 23.6341 10.0917C23.3885 9.49327 23.0267 8.94954 22.5696 8.49194C22.1125 8.03435 21.5691 7.67199 20.971 7.42585C20.3728 7.17971 19.7318 7.05468 19.085 7.058C16.378 7.056 14.995 9.049 14.653 9.853C14.656 8.646 13.466 7.221 12.073 7.219H7.59V16.893L11.771 16.894C13.457 16.894 14.657 15.434 14.659 14.181C15.044 14.969 16.379 16.943 19.086 16.941L19.085 16.942ZM11.42 13.006C11.807 13.006 12.112 13.388 12.112 13.823C12.112 14.258 11.807 14.64 11.42 14.64H10.09V13.006H11.42ZM11.425 9.373C11.812 9.373 12.117 9.755 12.117 10.19C12.117 10.626 11.812 11.008 11.425 11.008H10.095V9.373H11.425ZM13.195 11.98C13.5 11.941 14.008 11.593 14.187 11.37C14.124 11.646 14.119 12.444 14.193 12.72C13.989 12.406 13.505 12.019 13.195 11.98ZM16.625 11.98C16.625 11.6567 16.6887 11.3365 16.8124 11.0378C16.9361 10.7391 17.1175 10.4677 17.3461 10.2391C17.5747 10.0105 17.8461 9.82914 18.1448 9.70541C18.4435 9.58168 18.7637 9.518 19.087 9.518C19.4103 9.518 19.7305 9.58168 20.0292 9.70541C20.3279 9.82914 20.5993 10.0105 20.8279 10.2391C21.0565 10.4677 21.2379 10.7391 21.3616 11.0378C21.4853 11.3365 21.549 11.6567 21.549 11.98C21.549 12.6331 21.2896 13.2594 20.8278 13.7213C20.3659 14.1831 19.7396 14.4425 19.0865 14.4425C18.4334 14.4425 17.8071 14.1831 17.3452 13.7213C16.8834 13.2594 16.625 12.6331 16.625 11.98ZM19.087 13.916C19.6005 13.916 20.0929 13.712 20.456 13.349C20.819 12.9859 21.023 12.4935 21.023 11.98C21.023 11.4665 20.819 10.9741 20.456 10.611C20.0929 10.248 19.6005 10.044 19.087 10.044C18.5735 10.044 18.0811 10.248 17.718 10.611C17.355 10.9741 17.151 11.4665 17.151 11.98C17.151 12.4935 17.355 12.9859 17.718 13.349C18.0811 13.712 18.5735 13.916 19.087 13.916Z" fill="black"/>
  </g>
  <defs>
    <clipPath id="clip0_32_66">
      <rect width="24" height="24" fill="white"/>
    </clipPath>
  </defs>
</svg>