<svg width="1406" height="950" viewBox="0 0 1406 950" fill="none" xmlns="http://www.w3.org/2000/svg">
<g clip-path="url(#clip0_44_111)">
<rect width="1406" height="950" fill="#FFF7DD"/>
<path d="M1010 951C673.333 951 337.167 951 1 951C1 634.333 1 317.667 1 1C469.667 1 938.333 1 1407 1C1407 317.667 1407 634.333 1407 951C1274.83 951 1142.67 951 1010 951ZM732.219 145.064C728.715 147.517 728.821 149.522 732.998 151.004C732.998 151.004 732.974 151.042 733.067 151.748C734.292 152.358 736.174 153.785 736.621 153.426C738.022 152.3 738.881 150.502 739.995 148.978C739.995 148.978 739.949 148.951 740.558 148.905C740.881 148.5 741.205 148.094 741.528 147.688C740.995 147.477 740.461 147.265 739.454 146.707C739.291 146.154 739.128 145.601 738.915 144.316C736.53 140.627 734.545 140.852 732.982 144.979C732.982 144.979 732.927 144.954 732.219 145.064ZM452.321 501.77C453.2 501.128 454.079 500.486 455.721 499.584C458.303 499.062 460.903 498.611 463.465 498.004C472.33 495.902 479.287 490.15 487.068 485.917C500.07 478.843 509.173 468.97 514.548 454.899C516.727 453.254 516.882 451.907 513.562 450.567C512.697 449.757 511.832 448.946 510.944 447.493C510.269 447.421 509.593 447.349 508.12 447.264C504.067 446.228 500.013 445.192 495.942 443.511C495.268 443.427 494.593 443.343 493.184 443.225C491.765 442.897 490.346 442.57 488.925 441.568C488.243 441.521 487.56 441.474 486.123 441.346C484.402 440.95 482.68 440.553 480.942 439.509C480.265 439.433 479.589 439.357 478.127 439.24C474.067 438.226 470.007 437.211 465.938 435.546C465.266 435.45 464.593 435.354 463.187 435.213C461.77 434.886 460.353 434.56 458.927 433.56C458.244 433.52 457.561 433.479 456.122 433.352C454.393 432.963 452.664 432.574 450.931 431.536C450.261 431.449 449.591 431.361 448.136 431.219C444.074 430.2 440.013 429.182 435.94 427.519C435.268 427.427 434.597 427.335 433.229 427.19C432.107 426.896 430.986 426.601 429.956 425.317C429.968 415.941 430.069 406.564 429.899 397.192C429.873 395.79 428.579 394.412 427.617 392.309C425.28 380.382 416.808 374.489 403.33 374.785C394.77 374.972 384.072 385.698 384.819 394.808C385.105 398.29 383.355 399.386 380.002 399.209C375.702 398.982 371.38 399.184 366.73 398.653C366.217 399.235 365.704 399.817 365.001 400.851C364.709 401.243 364.416 401.635 363.426 402.075C361.413 403.5 361.679 404.461 364.366 405.515C365.257 406.29 366.148 407.065 367.154 408.669C368.28 409.11 369.397 409.905 370.532 409.93C375.139 410.032 379.751 409.897 384.573 410.742C384.794 423.804 385.016 436.866 384.691 450.221C385.153 450.808 385.615 451.396 386.392 452.69C388.585 463.09 393.551 471.991 400.591 479.915C407.194 487.346 415.42 492.343 424.043 497.686C424.076 505.906 424.108 514.126 423.405 522.474C422.926 522.355 422.446 522.236 421.941 521.476C421.264 521.418 420.588 521.361 419.125 521.258C417.07 520.889 415.014 520.519 412.94 519.504C412.264 519.433 411.588 519.362 410.119 519.256C408.067 518.886 406.015 518.515 403.914 517.434C403.317 517.035 402.721 516.636 402.124 516.237C401.783 516.893 401.442 517.55 400.982 518.795C400.699 519.543 400.416 520.29 399.489 521.059C399.425 521.737 399.36 522.414 399.267 523.885C398.909 525.94 398.551 527.996 397.533 530.067C397.478 530.748 397.423 531.429 397.308 532.906C396.949 534.96 396.589 537.014 395.561 539.073C395.506 539.752 395.451 540.432 395.335 541.908C394.967 543.96 394.598 546.013 393.556 548.074C393.521 548.757 393.486 549.441 393.363 550.96C392.274 556.32 391.185 561.679 389.466 567.058C389.38 567.727 389.294 568.397 389.193 569.91C388.392 577.316 388.392 577.319 380.788 577.319C346.17 577.323 311.552 577.314 276.934 577.329C232.997 577.348 189.059 577.386 144.832 576.806C144.277 577.323 143.722 577.841 142.871 578.845C142.257 579.564 141.643 580.284 140.096 580.985C135.709 580.992 131.322 580.999 126.554 580.591C125.978 579.851 125.401 579.111 124.893 577.684C124.223 577.595 123.553 577.505 121.963 577.392C115.181 577.366 108.376 577.026 101.626 577.483C99.2345 577.645 96.9741 579.749 93.7623 580.98C88.2846 580.973 82.807 580.966 76.9737 580.323C72.5116 576.039 69.3632 576.003 63.6171 580.144C56.3217 580.428 49.0257 580.695 41.7312 581.001C31.6447 581.423 23.8791 586.028 19.1781 594.849C14.7831 603.096 13.2818 611.755 16.8543 621.062C19.6777 628.417 24.1253 633.63 31.2089 637.107C38.8271 640.845 46.9579 640.86 54.967 640.889C106.464 641.077 157.961 640.986 209.458 640.984C213.708 640.984 217.988 640.634 222.2 641.024C233.722 642.093 239.754 649.42 238.995 660.977C238.687 665.679 231.713 674.537 227.727 674.939C222.621 675.454 217.405 675.223 212.384 676.132C207.116 677.085 201.48 678.069 196.957 680.685C184.678 687.789 179.962 701.499 184.667 715.47C189.036 728.444 198.067 735.006 211.775 735.007C235.274 735.009 258.773 735.007 282.272 735.007C314.27 735.008 346.268 735.05 378.266 734.99C391.414 734.966 404.526 744.781 399.024 760.199C396.977 765.936 390.251 771.002 384.028 771.006C370.363 771.013 356.685 770.678 343.036 771.153C336.245 771.389 329.368 772.01 323.294 776.301C311.702 784.491 308.697 796.076 311.366 808.788C314.02 821.422 324.903 831.027 339.272 831.026C552.427 830.997 765.582 831.013 978.737 830.927C982.453 830.925 986.288 830.19 989.861 829.114C1004.36 824.748 1013.65 806.687 1008.66 792.688C1003.43 777.99 992.036 771.357 977.928 771.159C945.103 770.698 912.264 770.772 879.437 771.167C870.665 771.272 867.09 765.78 863.607 759.732C861.162 755.486 863.752 746.484 867.245 742.12C872.646 735.371 880.319 735.183 887.58 735.14C932.243 734.879 976.908 735.022 1021.57 734.997C1033.12 734.99 1041.26 729.064 1046.08 719.125C1050.81 709.379 1050.52 699.328 1044.52 689.916C1038.3 680.137 1029.23 675.818 1017.73 675.975C1006.4 676.13 995.053 676.254 983.732 675.904C978.113 675.73 972.486 675.653 967.882 670.672C962.367 664.706 960.629 658.287 963.638 651.153C966.015 645.518 970.203 640.88 980.002 640.867C1092.12 640.723 1204.24 640.349 1316.36 639.95C1324.65 639.921 1331.52 636.036 1336.51 629.642C1344.45 619.456 1345.09 608.168 1339.75 596.575C1335.44 587.223 1327.85 581.314 1317.73 581.177C1284.41 580.724 1251.07 581.04 1217.46 580.438C1215.23 579.4 1213.04 577.581 1210.77 577.467C1203.57 577.108 1196.34 577.385 1188.83 576.806C1188.28 577.338 1187.73 577.869 1186.89 578.883C1186.29 579.592 1185.68 580.3 1184.13 580.986C1179.16 580.979 1174.18 580.971 1168.87 580.459C1168.21 579.716 1167.55 578.974 1166.92 577.569C1166.25 577.494 1165.57 577.418 1163.97 577.366C1138.01 577.319 1112.04 577.272 1085.77 576.679C1085.19 577.152 1084.6 577.625 1083.6 578.509C1082.82 579.376 1082.05 580.242 1080.31 581.027C1071.42 580.72 1062.53 580.413 1053.34 579.689C1052.88 579.195 1052.41 578.701 1051.94 577.55C1051.27 577.462 1050.59 577.373 1048.99 577.34C863.799 577.336 678.607 577.333 493.415 577.32C486.59 577.319 479.765 577.219 473.043 576.451C472.89 575.266 472.737 574.081 472.656 572.07C473.76 566.708 474.865 561.346 476.586 555.95C476.658 555.282 476.731 554.613 476.808 553.155C477.177 551.095 477.546 549.036 478.55 546.946C478.605 546.269 478.66 545.592 478.738 544.121C479.116 542.069 479.495 540.017 480.585 537.911C480.974 537.304 481.363 536.697 481.752 536.089C481.079 535.767 480.406 535.445 479.098 534.982C478.056 534.683 477.015 534.383 475.946 533.454C475.273 533.381 474.6 533.309 473.14 533.214C471.086 532.841 469.031 532.467 466.949 531.463C466.277 531.383 465.604 531.303 464.137 531.207C462.087 530.822 460.037 530.436 457.952 529.428C457.28 529.359 456.608 529.29 455.222 529.232C454.077 528.968 452.932 528.704 451.914 527.436C451.754 518.823 451.594 510.209 451.528 501.52C451.528 501.52 451.573 501.407 452.321 501.77ZM1104.15 730.503C1108.86 733.915 1114 735.184 1119.94 735.121C1144.92 734.852 1169.91 735.069 1194.9 734.929C1197.91 734.912 1201.13 734.288 1203.9 733.122C1223.11 725.058 1228.39 705.615 1217.31 688.728C1210.58 678.467 1200.3 676.216 1189.3 676.085C1167.48 675.823 1145.65 675.945 1123.83 676.061C1119.55 676.084 1115.11 676.214 1111.01 677.31C1102.14 679.686 1091.2 694.594 1091.01 703.84C1090.79 714.675 1095.18 723.326 1104.15 730.503ZM124.619 676.981C120.834 676.656 117.043 676.015 113.263 676.07C104.149 676.204 94.9458 675.992 85.9618 677.24C80.5225 677.995 74.7758 680.306 70.3034 683.506C59.5226 691.219 57.4312 708.51 63.6884 720.292C68.2664 728.913 75.51 734.367 85.17 734.843C98.4509 735.497 111.799 735.327 125.096 734.86C130.956 734.655 136.548 732.76 141.237 728.419C148.848 721.374 151.72 713.122 151.179 702.752C150.471 689.161 139.153 677.165 124.619 676.981ZM699.889 276.663C698.329 275.715 696.473 275.05 695.259 273.773C689.343 267.55 683.462 261.282 677.866 254.774C675.807 252.378 673.803 251.19 671.07 252.822C668.538 254.334 667.541 256.188 669.578 259.373C674.528 267.113 680.01 274.217 687.445 279.8C701.37 290.256 716.609 296.146 734.334 295.985C769.485 295.665 804.642 295.914 839.796 295.943C841.623 295.944 843.452 296.167 845.278 296.135C855.696 295.955 866.407 297.207 876.47 295.209C896.89 291.154 911.07 278.477 918.83 258.996C919.544 257.204 920.181 254.973 919.73 253.238C919.244 251.369 917.314 248.392 916.228 248.482C914.187 248.651 910.924 250.386 910.584 251.983C909.037 259.265 905.393 265.12 900.49 270.49C891.997 279.793 881.906 286.062 869.025 286.105C823.708 286.255 778.39 286.107 733.073 286.199C721.29 286.223 710.544 282.982 699.889 276.663ZM854.318 148.02C855.22 148.755 856.071 149.566 857.031 150.215C879.568 165.438 884.349 197.99 871.633 219.907C869.236 224.038 865.953 227.65 863.152 231.554C861.255 234.198 861.948 236.507 864.261 238.572C866.535 240.602 868.609 240.075 870.272 237.946C873.62 233.662 877.569 229.613 879.872 224.798C883.719 216.756 886.469 208.19 890.025 198.949C893.235 201.766 897.35 204.745 900.669 208.44C905.781 214.132 909.834 220.508 911.407 228.299C912.043 231.45 914.739 233.701 918.177 232.497C921.531 231.323 921.247 228.204 920.493 225.268C916.44 209.489 906.723 198.188 892.994 189.865C890.873 188.579 888.376 186.153 888.046 183.954C885.442 166.614 876.85 152.676 863.14 142.476C848.005 131.216 830.835 127.422 811.922 131.808C800.593 134.436 790.835 139.29 782.458 147.214C779.953 149.583 778.839 152.423 781.158 155.086C783.509 157.787 786.188 157.097 788.898 154.581C800.268 144.023 813.778 138.966 829.331 139.892C838.066 140.413 846.077 143.451 854.318 148.02ZM428.5 263.931C442.496 263.931 456.492 263.935 470.488 263.93C478.985 263.927 487.493 264.124 495.971 263.713C497.628 263.632 499.994 261.399 500.477 259.713C500.811 258.547 498.78 256.098 497.236 255.171C495.669 254.229 493.403 254.199 491.443 254.198C420.463 254.155 349.483 254.151 278.504 254.213C276.232 254.215 273.737 254.535 271.77 255.538C270.516 256.178 269.162 258.55 269.442 259.785C269.793 261.336 271.553 262.959 273.112 263.727C274.461 264.392 276.377 263.93 278.043 263.93C327.862 263.933 377.681 263.932 428.5 263.931ZM489.5 220.163C468.014 220.162 446.528 220.136 425.042 220.201C422.919 220.207 420.483 220.228 418.777 221.234C417.428 222.028 416.163 224.457 416.365 225.958C416.558 227.39 418.57 228.737 420.032 229.767C420.705 230.242 421.974 229.881 422.974 229.881C460.449 229.887 497.924 229.891 535.4 229.893C536.232 229.893 537.08 229.979 537.895 229.855C541.772 229.263 543.44 225.223 540.601 222.513C539.14 221.118 536.559 220.285 534.47 220.258C519.815 220.072 505.157 220.162 489.5 220.163ZM675.099 171.653C671.13 179.036 666.482 186.144 663.344 193.864C657.876 207.317 656.306 221.345 660.216 235.66C661.345 239.794 666.049 241.768 668.388 238.633C669.671 236.914 670.178 233.804 669.639 231.674C666.769 220.32 668.602 209.369 671.942 198.554C676.127 185.004 683.959 173.675 695.615 165.769C702.87 160.847 711.371 157.75 719.358 153.926C722.083 152.621 724.76 151.084 723.44 147.676C722.227 144.541 719.481 143.393 716.041 144.604C713.233 145.592 710.346 146.354 707.549 147.37C694.53 152.099 684.772 161.238 675.099 171.653ZM700.112 178.565C692.054 185.992 686.087 194.683 682.853 205.31C681.71 209.067 682.839 211.362 685.844 212.574C689.04 213.862 690.727 211.876 692.167 208.825C695.024 202.775 697.874 196.537 701.889 191.26C709.229 181.612 719.319 176.274 731.652 175.858C736.301 175.702 740.966 175.724 745.613 175.919C748.791 176.052 750.817 174.256 750.544 171.695C750.338 169.756 748.268 166.954 746.493 166.463C742.579 165.379 738.305 165.041 734.218 165.235C721.676 165.833 710.337 169.908 700.112 178.565ZM446.497 187.145C440.664 187.145 434.83 187.141 428.997 187.146C421.664 187.153 414.318 186.917 407.005 187.3C404.058 187.454 399.838 188.039 400.4 192.367C400.846 195.807 403.644 197.889 407.601 197.874C424.767 197.809 441.934 197.822 459.1 197.866C463.003 197.876 465.585 196.416 465.826 192.264C466.089 187.747 462.84 187.242 459.494 187.163C455.496 187.068 451.495 187.144 446.497 187.145ZM956.754 264.841C960.913 264.841 965.074 264.914 969.231 264.827C982.171 264.556 995.109 264.176 1008.05 263.949C1011.66 263.885 1012.26 261.699 1011.79 258.962C1011.2 255.492 1008.85 254.098 1005.36 254.118C993.715 254.187 982.069 254.149 970.423 254.151C964.766 254.152 959.107 254.256 953.454 254.117C949.576 254.021 946.916 256.35 946.867 259.449C946.84 261.189 950.282 263.15 952.406 264.671C953.188 265.231 954.671 264.812 956.754 264.841ZM329.141 153.562C327.698 158.094 330.776 161.784 335.738 161.458C338.208 161.296 340.677 160.967 343.147 160.959C357.768 160.91 372.388 160.893 387.008 160.961C390.64 160.978 393.671 159.735 393.644 155.961C393.617 152.148 390.49 151.056 386.9 151.068C369.621 151.13 352.342 151.039 335.065 151.178C333.265 151.193 331.474 152.366 329.141 153.562ZM517.163 263.873C528.947 263.888 540.733 263.815 552.515 263.973C556.044 264.021 559.037 262.888 558.52 259.335C558.238 257.397 555.023 254.51 553.03 254.426C541.764 253.947 530.461 253.997 519.186 254.358C517.187 254.422 514.47 256.416 513.591 258.243C513.042 259.384 515.315 261.883 517.163 263.873ZM770.125 163.314C772.522 165.078 774.709 167.366 777.383 168.436C779.442 169.26 782.775 169.463 784.358 168.313C786.691 166.617 786.576 163.435 783.813 161.548C777.18 157.019 770.539 152.476 763.645 148.369C761.032 146.813 757.751 145.917 754.706 145.708C752.644 145.566 749.507 146.557 748.559 148.094C747.139 150.395 748.025 153.142 751.172 154.51C757.343 157.192 763.429 160.069 770.125 163.314ZM948.201 193.215C950.072 196.491 952.719 198.128 956.661 197.898C960.791 197.657 964.946 197.796 969.088 197.864C972.949 197.927 975.497 196.468 975.851 192.34C976.258 187.611 972.521 187.446 969.549 187.249C964.434 186.91 959.279 187.14 954.142 187.159C950.614 187.172 948.661 189.005 948.201 193.215ZM578.818 220.173C573.344 220.167 567.869 220.181 562.395 220.149C558.902 220.129 556.025 221.881 556.524 225.176C556.799 226.994 560.119 229.364 562.319 229.672C567.201 230.355 572.272 230.211 577.206 229.757C579.449 229.551 582.629 228.345 583.476 226.642C584.957 223.669 582.506 221.49 578.818 220.173ZM1049.65 263.399C1050.2 261.333 1051.83 258.597 1051.05 257.364C1050 255.69 1047.21 254.686 1045 254.269C1042.29 253.757 1039.22 253.538 1036.65 254.329C1034.31 255.049 1032.44 257.287 1030.37 258.856C1031.86 260.565 1033.19 263.514 1034.89 263.742C1039.49 264.361 1044.25 263.826 1049.65 263.399ZM299.594 197.847C301.575 197.843 303.8 198.407 305.475 197.689C307.496 196.823 310.175 195.06 310.471 193.327C310.735 191.782 308.353 188.439 306.765 188.181C302.341 187.462 297.712 187.744 293.184 187.996C289.999 188.173 289.715 190.805 290.204 193.175C291.171 197.867 294.862 198.085 299.594 197.847ZM338.339 286.38C341.895 289.085 352.609 290.31 355.74 287.781C357.098 286.684 358.297 283.589 357.705 282.19C355.082 275.989 349.181 278.127 344.567 278.413C342.195 278.561 339.904 281.226 337.773 282.991C337.373 283.322 337.906 284.779 338.339 286.38ZM242.636 288.895C244.787 288.886 247.202 289.491 249.019 288.708C251.184 287.775 252.837 285.651 254.712 284.043C252.938 282.103 251.494 279.475 249.296 278.425C247.267 277.456 244.43 278.157 241.949 278.165C236.534 278.182 233.918 280.106 234.112 284.095C234.36 289.216 238.288 288.725 242.636 288.895ZM535.126 153.551C532.729 157.172 535.101 159.987 537.855 160.46C542.362 161.233 547.35 161.296 551.728 160.129C555.914 159.013 556.087 153.859 552.129 152.365C546.762 150.339 541.029 149.69 535.126 153.551ZM359.689 220.245C355.88 220.221 351.948 219.622 348.312 220.403C346.336 220.827 343.765 223.41 343.432 225.357C342.963 228.088 345.082 230.123 348.488 229.921C351.459 229.744 354.506 230.246 357.412 229.779C359.591 229.429 361.599 228.016 363.683 227.077C362.615 224.886 361.547 222.695 359.689 220.245ZM405.885 152.217C403.141 156.069 403.274 159.377 406.802 160.057C411.301 160.924 416.102 160.749 420.693 160.265C421.901 160.137 423.746 157.125 423.602 155.598C423.455 154.048 421.306 151.587 419.868 151.464C415.502 151.091 411.055 151.654 405.885 152.217ZM987.194 368.137C984.534 368.138 981.871 368.226 979.216 368.119C976.203 367.997 973.98 368.446 974.022 372.293C974.061 375.976 975.457 377.946 979.311 377.86C982.136 377.797 984.963 377.841 987.789 377.847C991.319 377.855 993.587 376.148 993.775 372.622C993.979 368.794 991.291 367.996 987.194 368.137ZM628.405 121.107C625.073 115.535 619.698 118.668 615.298 118.427C613.692 118.339 611.92 121.271 610.224 122.825C611.97 124.498 613.453 126.849 615.534 127.655C617.705 128.496 620.459 127.726 622.946 127.877C627.338 128.143 628.97 125.931 628.405 121.107ZM969.649 220.152C969.318 220.152 968.987 220.146 968.656 220.153C965.08 220.237 962.109 220.775 962.027 225.509C961.94 230.62 965.381 229.853 968.475 229.88C970.793 229.9 973.184 230.215 975.405 229.747C976.95 229.421 979.17 228.203 979.454 226.999C979.823 225.435 979.09 222.601 977.899 221.902C975.818 220.68 973.026 220.671 969.649 220.152ZM918.903 235.62C915.394 234.26 913.048 236.382 912.535 239.107C912.189 240.946 913.739 243.912 915.367 245.062C916.337 245.747 919.816 244.449 920.894 243.057C922.657 240.78 922.91 237.795 918.903 235.62Z" fill="#FFF7DD"/>
<path d="M1169.21 580.963C1174.18 580.971 1179.16 580.979 1184.67 581.357C1185.82 585.236 1188.07 586.688 1191.47 586.688C1198.06 586.688 1204.64 586.652 1211.22 586.709C1215.12 586.742 1217.53 585.211 1217.74 581.061C1251.07 581.04 1284.41 580.724 1317.73 581.177C1327.85 581.314 1335.44 587.223 1339.75 596.575C1345.09 608.168 1344.45 619.456 1336.51 629.642C1331.52 636.036 1324.65 639.921 1316.36 639.95C1204.24 640.349 1092.12 640.723 980.002 640.867C970.203 640.88 966.015 645.518 963.638 651.153C960.629 658.287 962.367 664.706 967.882 670.672C972.486 675.653 978.113 675.73 983.732 675.904C995.053 676.254 1006.4 676.13 1017.73 675.975C1029.23 675.818 1038.3 680.137 1044.52 689.916C1050.52 699.328 1050.81 709.379 1046.08 719.125C1041.26 729.064 1033.12 734.99 1021.57 734.997C976.908 735.022 932.243 734.879 887.58 735.14C880.319 735.183 872.646 735.371 867.245 742.12C863.752 746.484 861.162 755.486 863.607 759.732C867.09 765.78 870.665 771.272 879.437 771.167C912.264 770.772 945.103 770.698 977.928 771.159C992.036 771.357 1003.43 777.99 1008.66 792.688C1013.65 806.687 1004.36 824.748 989.861 829.114C986.288 830.19 982.453 830.925 978.737 830.927C765.582 831.013 552.427 830.997 339.272 831.026C324.903 831.027 314.02 821.422 311.366 808.788C308.697 796.076 311.702 784.491 323.294 776.301C329.368 772.01 336.245 771.389 343.036 771.153C356.685 770.678 370.363 771.013 384.028 771.006C390.251 771.002 396.977 765.936 399.024 760.199C404.526 744.781 391.414 734.966 378.266 734.99C346.268 735.05 314.27 735.008 282.272 735.007C258.773 735.007 235.274 735.009 211.775 735.007C198.067 735.006 189.036 728.444 184.667 715.47C179.962 701.499 184.678 687.789 196.957 680.685C201.48 678.069 207.116 677.085 212.384 676.132C217.405 675.223 222.621 675.454 227.727 674.939C231.713 674.537 238.687 665.679 238.995 660.977C239.754 649.42 233.722 642.093 222.2 641.024C217.988 640.634 213.708 640.984 209.458 640.984C157.961 640.986 106.464 641.077 54.967 640.889C46.9579 640.86 38.8271 640.845 31.2089 637.107C24.1253 633.63 19.6777 628.417 16.8543 621.062C13.2818 611.755 14.7831 603.096 19.1781 594.849C23.8791 586.028 31.6447 581.423 41.7312 581.001C49.0257 580.695 56.3217 580.428 64.0451 580.528C64.1366 584.943 66.2862 586.489 70.0294 586.755C74.3333 587.06 77.0711 585.633 77.3293 580.959C82.807 580.966 88.2846 580.973 94.3168 581.355C95.0286 585.613 97.4561 586.708 100.871 586.695C107.325 586.669 113.78 586.67 120.235 586.704C124.136 586.725 126.511 585.034 126.935 581.006C131.322 580.999 135.709 580.992 140.637 581.354C142.267 587.232 146.536 586.696 150.563 586.696C448.67 586.69 746.778 586.691 1044.89 586.691C1045.89 586.691 1046.89 586.706 1047.88 586.688C1052.21 586.606 1054.48 584.711 1053.64 580.106C1062.53 580.413 1071.42 580.72 1080.85 581.405C1082.27 585.504 1084.84 586.718 1088.41 586.714C1113.13 586.682 1137.85 586.694 1162.57 586.689C1166.42 586.688 1168.9 585.076 1169.21 580.963ZM474.156 635.076C477.021 635.191 479.117 634.389 479.085 630.993C479.053 627.594 476.901 626.876 474.068 626.963C472.905 626.998 471.739 626.966 470.574 626.966C443.78 626.966 416.987 626.965 390.194 626.966C388.197 626.966 385.984 626.447 384.266 627.143C382.653 627.797 381.563 629.742 380.243 631.118C381.616 632.433 382.871 633.917 384.415 634.985C385.094 635.454 386.358 635.083 387.356 635.083C415.98 635.082 444.604 635.08 474.156 635.076ZM403.5 601.332C391.668 601.33 379.836 601.334 368.004 601.324C364.564 601.321 361.29 602.02 361.261 606.172C361.231 610.499 364.629 610.825 368.035 610.82C389.365 610.794 410.696 610.802 432.027 610.824C435.353 610.827 438.789 610.731 438.959 606.351C439.145 601.58 435.452 601.354 431.996 601.336C422.831 601.289 413.665 601.328 403.5 601.332ZM470.572 660.719C471.721 658.795 472.869 656.87 474.018 654.946C471.985 653.789 469.971 651.671 467.915 651.629C453.449 651.336 438.974 651.408 424.503 651.516C421.367 651.539 418.264 652.461 418.389 656.495C418.516 660.616 421.602 660.9 424.828 660.89C439.799 660.842 454.77 660.847 470.572 660.719ZM452.037 610.81C455.703 610.808 459.369 610.795 463.035 610.81C466.026 610.823 469.049 609.715 468.492 606.597C468.135 604.593 465.29 602.091 463.134 601.567C459.672 600.725 455.763 600.843 452.225 601.517C450.089 601.924 447.215 603.785 446.599 605.635C445.601 608.63 448.13 610.365 452.037 610.81ZM471.805 685.683C472.452 683.873 474.061 681.632 473.494 680.365C472.824 678.867 470.374 677.661 468.514 677.321C465.784 676.82 462.724 676.622 460.125 677.385C458.021 678.003 455.303 679.931 454.787 681.808C453.878 685.115 457.092 686.397 459.77 686.536C463.531 686.73 467.328 686.225 471.805 685.683ZM491.784 660.731C492.967 659.01 495.106 657.25 495.037 655.581C494.98 654.19 492.418 651.947 490.81 651.802C488.432 651.588 485.725 652.55 483.562 653.743C482.777 654.176 482.466 657.608 483.129 658.116C484.912 659.48 487.327 660.033 489.516 660.838C489.951 660.997 490.501 660.843 491.784 660.731ZM476.209 610.57C478.168 610.574 480.242 610.995 482.06 610.491C485.282 609.597 486.923 606.92 484.953 604.116C483.827 602.512 480.836 601.564 478.675 601.545C476.896 601.53 474.038 602.984 473.595 604.395C473.095 605.987 474.761 608.259 476.209 610.57Z" fill="#DED4F9"/>
<path d="M1053.49 579.898C1054.48 584.711 1052.21 586.606 1047.88 586.688C1046.89 586.706 1045.89 586.691 1044.89 586.691C746.778 586.691 448.67 586.691 150.563 586.696C146.536 586.696 142.267 587.232 141.104 581.363C141.643 580.284 142.257 579.564 143.304 578.583C144.199 578.019 144.661 577.717 145.122 577.416C189.059 577.386 232.997 577.348 276.934 577.329C311.552 577.314 346.17 577.323 380.788 577.32C388.392 577.319 388.392 577.316 389.452 569.325C389.84 568.173 389.967 567.606 390.095 567.039C391.185 561.679 392.274 556.32 393.636 550.36C394.016 549.195 394.123 548.631 394.229 548.066C394.598 546.013 394.967 543.96 395.6 541.333C395.987 540.194 396.108 539.631 396.229 539.068C396.589 537.014 396.949 534.96 397.576 532.33C397.96 531.187 398.076 530.619 398.193 530.052C398.551 527.996 398.909 525.94 399.525 523.316C399.9 522.177 400.017 521.607 400.134 521.038C400.416 520.29 400.699 519.543 401.4 518.492C402.533 518.174 403.248 518.159 403.964 518.144C406.015 518.515 408.067 518.886 410.685 519.521C411.82 519.906 412.389 520.028 412.959 520.15C415.014 520.519 417.07 520.889 419.691 521.524C420.827 521.899 421.397 522.008 421.966 522.117C422.446 522.236 422.926 522.355 424.204 522.344C425.215 514.127 425.448 506.041 425.573 497.953C425.579 497.544 424.648 497.12 424.153 496.704C415.42 492.343 407.194 487.346 400.591 479.915C393.551 471.991 388.585 463.09 386.275 452.037C385.85 450.899 385.543 450.414 385.237 449.929C385.016 436.866 384.794 423.804 384.387 409.867C378.48 408.608 372.76 408.224 367.04 407.84C366.148 407.065 365.257 406.29 364.256 404.888C364.138 403.517 364.131 402.772 364.123 402.028C364.416 401.635 364.709 401.243 365.384 400.571C366.201 399.928 366.634 399.565 367.067 399.202C371.38 399.184 375.702 398.982 380.002 399.209C383.355 399.386 385.105 398.29 384.819 394.808C384.072 385.698 394.77 374.972 403.33 374.785C416.808 374.489 425.28 380.382 427.694 393.131C427.797 403.046 427.723 412.143 427.941 421.232C427.982 422.938 429.193 424.616 429.865 426.306C430.986 426.601 432.107 426.896 433.739 427.47C434.817 427.888 435.384 428.026 435.952 428.164C440.013 429.182 444.074 430.2 448.693 431.493C449.813 431.906 450.374 432.045 450.936 432.185C452.664 432.574 454.393 432.963 456.682 433.625C457.806 434.01 458.371 434.122 458.936 434.233C460.353 434.56 461.77 434.886 463.716 435.489C464.813 435.909 465.38 436.053 465.948 436.197C470.007 437.211 474.067 438.226 478.692 439.504C479.824 439.897 480.391 440.026 480.958 440.156C482.68 440.553 484.402 440.95 486.68 441.619C487.8 442.008 488.364 442.125 488.927 442.242C490.346 442.57 491.765 442.897 493.717 443.493C494.82 443.892 495.39 444.024 495.959 444.156C500.013 445.192 504.067 446.228 508.693 447.511C509.832 447.884 510.399 448.01 510.967 448.135C511.832 448.946 512.697 449.757 513.729 451.183C513.869 452.851 513.843 453.903 513.816 454.955C509.173 468.97 500.07 478.843 487.068 485.917C479.287 490.15 472.33 495.902 463.465 498.004C460.903 498.611 458.303 499.062 454.982 499.666C453.353 500.3 452.463 500.854 451.573 501.407C451.573 501.407 451.528 501.52 451.101 501.684C450.455 510.206 450.204 518.565 450.092 526.925C450.085 527.422 451.196 527.934 451.787 528.439C452.932 528.704 454.077 528.968 455.748 529.474C456.846 529.828 457.417 529.939 457.988 530.051C460.037 530.436 462.087 530.822 464.7 531.467C465.834 531.848 466.406 531.971 466.977 532.094C469.031 532.467 471.086 532.841 473.701 533.475C474.832 533.851 475.403 533.967 475.973 534.083C477.015 534.383 478.056 534.683 479.435 535.408C479.805 536.544 479.84 537.255 479.874 537.965C479.495 540.017 479.116 542.069 478.485 544.693C478.126 545.835 478.02 546.406 477.915 546.976C477.546 549.036 477.177 551.095 476.555 553.715C476.191 554.845 476.08 555.415 475.969 555.985C474.865 561.346 473.76 566.708 472.351 572.738C472.345 574.659 472.643 575.912 472.941 577.165C479.765 577.219 486.59 577.32 493.415 577.32C678.607 577.333 863.799 577.336 1049.62 577.557C1050.82 577.918 1051.38 578.063 1051.94 578.207C1052.41 578.701 1052.88 579.195 1053.49 579.898ZM409.695 577.243C410.123 577.181 410.55 577.12 411.51 577.578C414.978 577.46 418.446 577.254 421.914 577.242C434.077 577.201 446.241 577.166 458.403 577.271C461.325 577.296 462.844 576.788 463.241 573.331C463.745 568.941 465.369 564.69 466.298 560.334C467.595 554.244 468.697 548.112 469.943 541.685C459.721 539.379 450.065 537.119 440.371 535.041C433.598 533.59 426.773 532.388 419.242 530.813C416.338 530.151 413.456 529.206 410.517 528.973C409.41 528.885 407.359 530.258 407.119 531.288C404.218 543.687 401.524 556.134 398.91 568.597C398.336 571.333 398.29 574.179 398 576.974C400.984 577.061 403.967 577.148 407.277 577.631C407.867 577.49 408.457 577.35 409.695 577.243ZM412.564 384.689C402.395 378.98 392.945 388.402 393.05 396.184C393.242 410.501 392.921 424.825 393.218 439.138C393.324 444.212 393.83 449.535 395.49 454.276C403.506 477.163 422.104 491.465 446.784 491.814C451.023 491.873 455.275 490.938 459.521 490.462C456.889 488.848 454.421 487.92 451.898 487.181C433.643 481.833 418.933 462.597 418.917 443.738C418.903 428.091 419.041 412.443 419.233 396.796C419.296 391.732 417.726 387.691 412.564 384.689ZM501.232 461.651C502.17 459.783 503.108 457.915 504.351 455.438C495.24 453.114 486.746 451.069 478.32 448.771C462.391 444.428 446.515 439.887 430.558 435.652C429.691 435.422 427.242 437.306 427.29 438.099C427.6 443.194 427.722 448.463 429.166 453.298C433.913 469.198 446.153 478.522 459.855 480.62C476.992 483.245 491.302 477.561 501.232 461.651ZM441.375 500.373C435.618 497.632 434.088 498.428 434.075 504.19C434.064 509.503 434.064 514.816 434.076 520.128C434.089 525.679 435.289 526.711 441.759 526.354C441.759 517.983 441.759 509.575 441.375 500.373Z" fill="#468BC5"/>
<path d="M1103.86 730.272C1095.18 723.326 1090.79 714.675 1091.01 703.84C1091.2 694.594 1102.14 679.686 1111.01 677.31C1115.11 676.214 1119.55 676.084 1123.83 676.061C1145.65 675.945 1167.48 675.823 1189.3 676.085C1200.3 676.216 1210.58 678.467 1217.31 688.728C1228.39 705.615 1223.11 725.058 1203.9 733.122C1201.13 734.288 1197.91 734.912 1194.9 734.929C1169.91 735.069 1144.92 734.852 1119.94 735.121C1114 735.184 1108.86 733.915 1103.86 730.272Z" fill="#DED4F9"/>
<path d="M125.069 676.986C139.153 677.165 150.471 689.161 151.179 702.752C151.72 713.122 148.848 721.373 141.237 728.419C136.548 732.76 130.956 734.655 125.096 734.86C111.799 735.327 98.4509 735.497 85.17 734.843C75.51 734.367 68.2664 728.913 63.6884 720.292C57.4312 708.51 59.5226 691.219 70.3034 683.506C74.7758 680.306 80.5225 677.995 85.9618 677.24C94.9458 675.992 104.149 676.203 113.263 676.07C117.043 676.015 120.834 676.656 125.069 676.986Z" fill="#DED4F9"/>
<path d="M700.179 276.885C710.544 282.982 721.29 286.223 733.073 286.199C778.39 286.107 823.708 286.255 869.025 286.105C881.906 286.062 891.997 279.793 900.49 270.49C905.393 265.119 909.037 259.265 910.584 251.983C910.924 250.386 914.187 248.651 916.228 248.482C917.314 248.392 919.244 251.369 919.73 253.238C920.181 254.973 919.544 257.204 918.83 258.996C911.07 278.477 896.89 291.154 876.47 295.209C866.407 297.207 855.696 295.955 845.278 296.135C843.452 296.167 841.623 295.944 839.796 295.943C804.642 295.914 769.485 295.665 734.334 295.985C716.609 296.146 701.37 290.256 687.445 279.8C680.01 274.216 674.528 267.113 669.578 259.373C667.541 256.188 668.538 254.334 671.07 252.822C673.803 251.19 675.807 252.378 677.866 254.774C683.462 261.282 689.343 267.55 695.259 273.773C696.473 275.05 698.329 275.715 700.179 276.885Z" fill="#312651" fill-opacity="0.65"/>
<path d="M853.99 147.858C846.077 143.451 838.066 140.413 829.331 139.892C813.778 138.966 800.268 144.023 788.898 154.581C786.188 157.097 783.509 157.787 781.158 155.086C778.839 152.423 779.953 149.583 782.458 147.214C790.835 139.29 800.593 134.436 811.922 131.808C830.835 127.422 848.005 131.216 863.14 142.476C876.85 152.676 885.442 166.614 888.046 183.954C888.376 186.153 890.873 188.579 892.994 189.865C906.723 198.188 916.44 209.489 920.493 225.268C921.247 228.204 921.531 231.323 918.177 232.497C914.739 233.701 912.043 231.45 911.407 228.299C909.834 220.508 905.781 214.132 900.669 208.44C897.35 204.745 893.235 201.766 890.025 198.949C886.469 208.19 883.719 216.756 879.872 224.798C877.569 229.613 873.62 233.662 870.272 237.946C868.609 240.075 866.535 240.602 864.261 238.572C861.948 236.507 861.255 234.198 863.152 231.554C865.953 227.65 869.236 224.039 871.633 219.908C884.349 197.99 879.568 165.438 857.031 150.215C856.071 149.566 855.22 148.755 853.99 147.858Z" fill="#312651" fill-opacity="0.65"/>
<path d="M428 263.931C377.681 263.932 327.862 263.933 278.043 263.93C276.377 263.93 274.461 264.392 273.112 263.727C271.553 262.959 269.793 261.336 269.442 259.785C269.162 258.55 270.516 256.178 271.77 255.538C273.737 254.535 276.232 254.215 278.504 254.213C349.483 254.151 420.463 254.155 491.443 254.198C493.403 254.199 495.669 254.229 497.236 255.171C498.78 256.099 500.811 258.547 500.477 259.713C499.994 261.399 497.628 263.632 495.971 263.713C487.493 264.124 478.985 263.927 470.488 263.93C456.492 263.935 442.496 263.931 428 263.931Z" fill="#312651" fill-opacity="0.65"/>
<path d="M490 220.163C505.157 220.162 519.815 220.072 534.47 220.258C536.559 220.285 539.14 221.118 540.601 222.513C543.44 225.223 541.772 229.263 537.895 229.855C537.08 229.979 536.232 229.893 535.4 229.893C497.924 229.891 460.449 229.887 422.974 229.881C421.974 229.881 420.705 230.242 420.032 229.767C418.57 228.737 416.558 227.39 416.365 225.958C416.163 224.457 417.428 222.028 418.777 221.234C420.483 220.228 422.92 220.207 425.042 220.201C446.528 220.136 468.014 220.162 490 220.163Z" fill="#312651" fill-opacity="0.65"/>
<path d="M675.342 171.394C684.772 161.238 694.53 152.099 707.549 147.37C710.346 146.355 713.233 145.592 716.041 144.604C719.481 143.393 722.227 144.541 723.44 147.677C724.76 151.084 722.083 152.621 719.358 153.926C711.371 157.75 702.87 160.847 695.615 165.769C683.959 173.675 676.127 185.004 671.942 198.554C668.602 209.369 666.769 220.32 669.639 231.674C670.178 233.804 669.671 236.914 668.388 238.633C666.049 241.768 661.345 239.794 660.216 235.661C656.306 221.345 657.876 207.317 663.344 193.865C666.482 186.144 671.13 179.036 675.342 171.394Z" fill="#312651" fill-opacity="0.65"/>
<path d="M700.366 178.315C710.337 169.908 721.676 165.833 734.218 165.235C738.305 165.041 742.579 165.379 746.493 166.463C748.268 166.954 750.338 169.756 750.545 171.695C750.817 174.256 748.791 176.052 745.613 175.919C740.966 175.724 736.301 175.702 731.652 175.858C719.319 176.274 709.229 181.612 701.889 191.26C697.874 196.537 695.024 202.775 692.167 208.825C690.727 211.876 689.04 213.862 685.844 212.574C682.839 211.362 681.71 209.067 682.853 205.31C686.087 194.683 692.054 185.992 700.366 178.315Z" fill="#312651" fill-opacity="0.65"/>
<path d="M1169.04 580.711C1168.9 585.076 1166.42 586.688 1162.57 586.689C1137.85 586.694 1113.13 586.682 1088.41 586.714C1084.84 586.718 1082.27 585.504 1081.34 581.446C1082.05 580.242 1082.82 579.376 1084.11 578.33C1085.1 577.842 1085.59 577.534 1086.07 577.225C1112.04 577.272 1138.01 577.319 1164.61 577.581C1165.8 577.941 1166.34 578.086 1166.89 578.231C1167.55 578.974 1168.21 579.716 1169.04 580.711Z" fill="#468BC5"/>
<path d="M446.996 187.145C451.495 187.144 455.496 187.068 459.494 187.163C462.84 187.242 466.089 187.747 465.826 192.264C465.585 196.416 463.003 197.876 459.1 197.866C441.934 197.822 424.767 197.809 407.601 197.874C403.644 197.889 400.846 195.807 400.4 192.367C399.838 188.039 404.058 187.454 407.005 187.3C414.318 186.917 421.664 187.153 428.997 187.146C434.83 187.141 440.664 187.145 446.996 187.145Z" fill="#696182" fill-opacity="0.69"/>
<path d="M956.294 264.84C954.671 264.812 953.188 265.231 952.406 264.671C950.282 263.15 946.84 261.189 946.867 259.449C946.916 256.35 949.576 254.021 953.454 254.117C959.107 254.256 964.766 254.152 970.423 254.151C982.069 254.149 993.715 254.187 1005.36 254.118C1008.85 254.098 1011.2 255.492 1011.79 258.962C1012.26 261.699 1011.66 263.885 1008.05 263.949C995.109 264.176 982.171 264.556 969.231 264.827C965.074 264.914 960.913 264.841 956.294 264.84Z" fill="#696182" fill-opacity="0.69"/>
<path d="M329.41 153.282C331.474 152.366 333.265 151.193 335.065 151.178C352.342 151.039 369.621 151.13 386.9 151.068C390.49 151.056 393.617 152.148 393.644 155.961C393.671 159.735 390.64 160.978 387.008 160.961C372.388 160.893 357.768 160.91 343.147 160.959C340.677 160.967 338.208 161.296 335.738 161.458C330.776 161.784 327.698 158.094 329.41 153.282Z" fill="#696182" fill-opacity="0.69"/>
<path d="M516.742 263.823C515.315 261.883 513.042 259.384 513.591 258.243C514.47 256.416 517.187 254.422 519.186 254.358C530.461 253.997 541.764 253.947 553.03 254.426C555.023 254.51 558.238 257.397 558.52 259.335C559.037 262.888 556.044 264.021 552.515 263.973C540.733 263.815 528.947 263.888 516.742 263.823Z" fill="#312651" fill-opacity="0.65"/>
<path d="M769.838 163.09C763.429 160.069 757.343 157.192 751.172 154.51C748.025 153.142 747.139 150.395 748.559 148.094C749.507 146.557 752.644 145.566 754.706 145.708C757.751 145.917 761.032 146.813 763.645 148.369C770.539 152.476 777.18 157.019 783.813 161.548C786.576 163.435 786.691 166.617 784.358 168.313C782.775 169.463 779.442 169.26 777.383 168.436C774.709 167.366 772.522 165.078 769.838 163.09Z" fill="#312651" fill-opacity="0.65"/>
<path d="M1217.6 580.75C1217.53 585.211 1215.12 586.742 1211.22 586.709C1204.64 586.652 1198.06 586.688 1191.47 586.688C1188.07 586.688 1185.82 585.236 1185.14 581.368C1185.68 580.3 1186.29 579.592 1187.32 578.613C1188.21 578.034 1188.67 577.725 1189.12 577.416C1196.34 577.385 1203.57 577.108 1210.77 577.467C1213.04 577.581 1215.23 579.4 1217.6 580.75Z" fill="#468BC5"/>
<path d="M126.744 580.799C126.511 585.034 124.136 586.725 120.235 586.704C113.78 586.67 107.325 586.669 100.871 586.695C97.4561 586.708 95.0286 585.613 94.7626 581.348C96.9741 579.749 99.2345 577.645 101.626 577.483C108.376 577.026 115.181 577.366 122.591 577.63C123.754 578.036 124.289 578.203 124.824 578.371C125.401 579.111 125.978 579.851 126.744 580.799Z" fill="#468BC5"/>
<path d="M948.185 192.838C948.661 189.005 950.614 187.172 954.142 187.159C959.279 187.14 964.434 186.91 969.549 187.249C972.521 187.446 976.258 187.611 975.851 192.34C975.497 196.468 972.949 197.927 969.088 197.864C964.946 197.796 960.791 197.657 956.661 197.898C952.719 198.128 950.072 196.491 948.185 192.838Z" fill="#696182" fill-opacity="0.69"/>
<path d="M579.241 220.209C582.506 221.49 584.957 223.669 583.476 226.642C582.629 228.345 579.449 229.551 577.206 229.757C572.272 230.211 567.201 230.355 562.319 229.672C560.119 229.364 556.799 226.994 556.524 225.176C556.025 221.881 558.902 220.129 562.395 220.149C567.869 220.181 573.344 220.167 579.241 220.209Z" fill="#A2E7FB"/>
<path d="M1049.3 263.574C1044.25 263.826 1039.49 264.361 1034.89 263.743C1033.19 263.515 1031.86 260.565 1030.37 258.856C1032.44 257.287 1034.31 255.049 1036.65 254.329C1039.22 253.538 1042.29 253.757 1045 254.269C1047.21 254.686 1050 255.69 1051.05 257.364C1051.83 258.597 1050.2 261.333 1049.3 263.574Z" fill="#696182" fill-opacity="0.69"/>
<path d="M299.14 197.847C294.862 198.085 291.171 197.867 290.204 193.175C289.715 190.805 289.999 188.173 293.184 187.996C297.712 187.744 302.341 187.462 306.765 188.181C308.353 188.439 310.735 191.782 310.471 193.327C310.175 195.06 307.496 196.823 305.475 197.689C303.8 198.407 301.575 197.843 299.14 197.847Z" fill="#696182" fill-opacity="0.69"/>
<path d="M338.174 286.048C337.906 284.779 337.373 283.322 337.773 282.991C339.904 281.226 342.195 278.56 344.567 278.413C349.181 278.127 355.082 275.989 357.705 282.19C358.297 283.589 357.098 286.684 355.74 287.781C352.609 290.31 341.895 289.085 338.174 286.048Z" fill="#696182" fill-opacity="0.69"/>
<path d="M242.185 288.894C238.288 288.725 234.36 289.216 234.112 284.095C233.918 280.106 236.534 278.182 241.949 278.165C244.43 278.157 247.267 277.456 249.296 278.425C251.494 279.475 252.938 282.103 254.712 284.043C252.837 285.651 251.184 287.775 249.019 288.708C247.202 289.491 244.787 288.886 242.185 288.894Z" fill="#A7E8FB"/>
<path d="M535.395 153.269C541.029 149.69 546.762 150.339 552.129 152.365C556.087 153.859 555.914 159.013 551.728 160.129C547.35 161.296 542.362 161.233 537.855 160.46C535.101 159.987 532.729 157.172 535.395 153.269Z" fill="#A7E8FB"/>
<path d="M360.084 220.375C361.547 222.695 362.615 224.886 363.683 227.077C361.599 228.016 359.591 229.429 357.412 229.779C354.506 230.246 351.459 229.744 348.488 229.921C345.082 230.123 342.963 228.088 343.432 225.357C343.765 223.41 346.336 220.827 348.312 220.403C351.948 219.622 355.88 220.221 360.084 220.375Z" fill="#312651" fill-opacity="0.65"/>
<path d="M406.262 152.035C411.055 151.654 415.502 151.091 419.868 151.464C421.306 151.587 423.455 154.048 423.602 155.598C423.746 157.125 421.901 160.137 420.693 160.265C416.102 160.749 411.301 160.924 406.802 160.057C403.274 159.377 403.141 156.069 406.262 152.035Z" fill="#696182" fill-opacity="0.69"/>
<path d="M987.645 368.138C991.291 367.996 993.979 368.794 993.775 372.622C993.587 376.148 991.319 377.856 987.789 377.847C984.963 377.841 982.136 377.797 979.311 377.86C975.457 377.946 974.061 375.976 974.022 372.293C973.98 368.446 976.203 367.997 979.216 368.119C981.871 368.226 984.534 368.138 987.645 368.138Z" fill="#312651" fill-opacity="0.65"/>
<path d="M628.563 121.473C628.97 125.931 627.338 128.143 622.946 127.877C620.459 127.726 617.705 128.496 615.534 127.655C613.453 126.849 611.97 124.498 610.224 122.825C611.92 121.271 613.692 118.339 615.298 118.427C619.698 118.668 625.073 115.535 628.563 121.473Z" fill="#A2E7FB"/>
<path d="M970.091 220.153C973.026 220.671 975.818 220.68 977.899 221.902C979.09 222.601 979.823 225.435 979.454 226.999C979.17 228.203 976.95 229.421 975.405 229.747C973.184 230.215 970.793 229.9 968.475 229.88C965.381 229.853 961.94 230.62 962.027 225.509C962.109 220.775 965.08 220.237 968.656 220.154C968.987 220.146 969.318 220.152 970.091 220.153Z" fill="#312651" fill-opacity="0.65"/>
<path d="M77.1515 580.641C77.0711 585.633 74.3333 587.06 70.0294 586.755C66.2862 586.489 64.1366 584.943 64.4928 580.545C69.3632 576.003 72.5116 576.039 77.1515 580.641Z" fill="#4E92C9"/>
<path d="M919.246 235.792C922.91 237.795 922.657 240.78 920.894 243.057C919.816 244.449 916.337 245.747 915.367 245.062C913.739 243.912 912.189 240.946 912.535 239.107C913.048 236.382 915.394 234.26 919.246 235.792Z" fill="#A7E8FB"/>
<path d="M429.91 425.812C429.193 424.616 427.982 422.938 427.941 421.232C427.723 412.143 427.797 403.046 427.821 393.488C428.579 394.412 429.873 395.79 429.899 397.192C430.069 406.564 429.968 415.941 429.91 425.812Z" fill="#DFF6FD"/>
<path d="M451.85 527.938C451.196 527.934 450.085 527.422 450.092 526.925C450.204 518.565 450.455 510.206 451.054 501.721C451.594 510.209 451.754 518.823 451.85 527.938Z" fill="#DFF6FD"/>
<path d="M424.098 497.195C424.648 497.12 425.579 497.544 425.573 497.953C425.448 506.04 425.215 514.126 424.572 522.279C424.108 514.126 424.076 505.906 424.098 497.195Z" fill="#DFF6FD"/>
<path d="M738.965 145.049C739.128 145.601 739.291 146.154 739.705 147.196C739.953 148.107 739.951 148.529 739.949 148.951C739.949 148.951 739.995 148.978 739.649 149.142C737.193 149.885 735.083 150.463 732.974 151.042C732.974 151.042 732.998 151.004 732.956 150.665C732.918 148.535 732.922 146.745 732.927 144.954C732.927 144.954 732.982 144.979 733.4 144.97C735.533 144.989 737.249 145.019 738.965 145.049Z" fill="#312651" fill-opacity="0.65"/>
<path d="M367.097 408.255C372.76 408.224 378.48 408.608 384.281 409.42C379.751 409.897 375.139 410.032 370.532 409.93C369.397 409.905 368.28 409.11 367.097 408.255Z" fill="#DFF6FD"/>
<path d="M733.02 151.395C735.083 150.463 737.193 149.885 739.626 149.135C738.881 150.502 738.022 152.3 736.621 153.426C736.174 153.785 734.292 152.358 733.02 151.395Z" fill="#DFF6FD"/>
<path d="M738.94 144.682C737.249 145.019 735.533 144.989 733.386 144.943C734.545 140.852 736.53 140.627 738.94 144.682Z" fill="#DFF6FD"/>
<path d="M732.573 145.009C732.922 146.745 732.918 148.535 732.937 150.676C728.821 149.522 728.715 147.517 732.573 145.009Z" fill="#DFF6FD"/>
<path d="M514.182 454.927C513.843 453.903 513.869 452.851 513.935 451.405C516.882 451.907 516.727 453.254 514.182 454.927Z" fill="#DFF6FD"/>
<path d="M403.939 517.789C403.248 518.159 402.533 518.174 401.459 518.197C401.442 517.55 401.783 516.893 402.124 516.237C402.721 516.636 403.317 517.035 403.939 517.789Z" fill="#DFF6FD"/>
<path d="M451.947 501.589C452.463 500.854 453.353 500.3 454.6 499.795C454.079 500.486 453.2 501.128 451.947 501.589Z" fill="#DFF6FD"/>
<path d="M363.775 402.051C364.131 402.772 364.138 403.517 364.084 404.63C361.679 404.461 361.413 403.5 363.775 402.051Z" fill="#DFF6FD"/>
<path d="M480.229 537.938C479.84 537.254 479.805 536.544 479.752 535.478C480.406 535.445 481.079 535.767 481.752 536.09C481.363 536.697 480.974 537.304 480.229 537.938Z" fill="#DFF6FD"/>
<path d="M472.992 576.808C472.643 575.912 472.345 574.659 472.315 573.151C472.737 574.081 472.89 575.266 472.992 576.808Z" fill="#DFF6FD"/>
<path d="M740.253 148.928C739.951 148.529 739.953 148.107 739.941 147.37C740.461 147.265 740.995 147.477 741.528 147.688C741.205 148.094 740.881 148.5 740.253 148.928Z" fill="#DFF6FD"/>
<path d="M366.899 398.927C366.634 399.565 366.201 399.928 365.479 400.344C365.704 399.817 366.217 399.235 366.899 398.927Z" fill="#DFF6FD"/>
<path d="M435.946 427.841C435.384 428.026 434.817 427.888 434.087 427.497C434.597 427.335 435.268 427.427 435.946 427.841Z" fill="#DFF6FD"/>
<path d="M476.277 555.967C476.08 555.415 476.191 554.845 476.553 554.11C476.731 554.613 476.658 555.282 476.277 555.967Z" fill="#DFF6FD"/>
<path d="M1188.98 577.111C1188.67 577.725 1188.21 578.034 1187.47 578.371C1187.73 577.869 1188.28 577.338 1188.98 577.111Z" fill="#DFF6FD"/>
<path d="M1166.91 577.9C1166.34 578.086 1165.8 577.941 1165.07 577.569C1165.57 577.418 1166.25 577.494 1166.91 577.9Z" fill="#DFF6FD"/>
<path d="M1085.92 576.952C1085.59 577.534 1085.1 577.842 1084.32 578.124C1084.6 577.625 1085.19 577.152 1085.92 576.952Z" fill="#DFF6FD"/>
<path d="M1051.94 577.879C1051.38 578.063 1050.82 577.918 1050.09 577.529C1050.59 577.374 1051.27 577.462 1051.94 577.879Z" fill="#DFF6FD"/>
<path d="M397.863 530.059C398.076 530.619 397.96 531.187 397.606 531.932C397.423 531.429 397.478 530.748 397.863 530.059Z" fill="#DFF6FD"/>
<path d="M480.95 439.833C480.391 440.026 479.824 439.897 479.085 439.524C479.589 439.357 480.265 439.433 480.95 439.833Z" fill="#DFF6FD"/>
<path d="M488.926 441.905C488.364 442.125 487.8 442.008 487.057 441.659C487.56 441.474 488.243 441.521 488.926 441.905Z" fill="#DFF6FD"/>
<path d="M495.951 443.834C495.39 444.024 494.82 443.892 494.085 443.509C494.593 443.343 495.268 443.427 495.951 443.834Z" fill="#DFF6FD"/>
<path d="M510.956 447.814C510.399 448.01 509.832 447.884 509.091 447.517C509.593 447.349 510.269 447.421 510.956 447.814Z" fill="#DFF6FD"/>
<path d="M384.964 450.075C385.543 450.414 385.85 450.899 386.117 451.684C385.615 451.396 385.153 450.808 384.964 450.075Z" fill="#DFF6FD"/>
<path d="M412.949 519.827C412.389 520.028 411.82 519.906 411.081 519.538C411.588 519.362 412.264 519.433 412.949 519.827Z" fill="#DFF6FD"/>
<path d="M421.954 521.796C421.397 522.008 420.827 521.899 420.084 521.547C420.588 521.361 421.264 521.419 421.954 521.796Z" fill="#DFF6FD"/>
<path d="M399.811 521.049C400.017 521.607 399.9 522.177 399.539 522.919C399.36 522.414 399.425 521.737 399.811 521.049Z" fill="#DFF6FD"/>
<path d="M457.97 529.739C457.417 529.939 456.846 529.828 456.106 529.469C456.608 529.29 457.28 529.359 457.97 529.739Z" fill="#DFF6FD"/>
<path d="M458.932 433.897C458.371 434.121 457.806 434.01 457.06 433.668C457.561 433.479 458.244 433.519 458.932 433.897Z" fill="#DFF6FD"/>
<path d="M144.977 577.111C144.661 577.717 144.199 578.019 143.452 578.339C143.722 577.841 144.277 577.323 144.977 577.111Z" fill="#DFF6FD"/>
<path d="M466.963 531.778C466.406 531.971 465.834 531.848 465.098 531.474C465.604 531.303 466.277 531.383 466.963 531.778Z" fill="#DFF6FD"/>
<path d="M450.933 431.86C450.374 432.045 449.813 431.906 449.086 431.52C449.591 431.361 450.261 431.449 450.933 431.86Z" fill="#DFF6FD"/>
<path d="M475.96 533.768C475.403 533.967 474.832 533.851 474.094 533.486C474.6 533.309 475.273 533.381 475.96 533.768Z" fill="#DFF6FD"/>
<path d="M395.895 539.07C396.108 539.631 395.987 540.194 395.63 540.935C395.451 540.432 395.506 539.752 395.895 539.07Z" fill="#DFF6FD"/>
<path d="M478.232 546.961C478.02 546.406 478.126 545.835 478.473 545.09C478.66 545.592 478.605 546.269 478.232 546.961Z" fill="#DFF6FD"/>
<path d="M393.893 548.07C394.123 548.63 394.016 549.195 393.68 549.941C393.486 549.441 393.521 548.757 393.893 548.07Z" fill="#DFF6FD"/>
<path d="M465.943 435.871C465.38 436.053 464.813 435.909 464.083 435.512C464.593 435.355 465.266 435.45 465.943 435.871Z" fill="#DFF6FD"/>
<path d="M389.781 567.048C389.967 567.606 389.84 568.173 389.46 568.903C389.294 568.397 389.38 567.727 389.781 567.048Z" fill="#DFF6FD"/>
<path d="M124.859 578.027C124.289 578.204 123.754 578.036 123.051 577.643C123.553 577.506 124.223 577.595 124.859 578.027Z" fill="#DFF6FD"/>
<path d="M473.692 635.077C444.604 635.08 415.98 635.082 387.356 635.083C386.358 635.083 385.094 635.454 384.415 634.985C382.871 633.917 381.616 632.433 380.243 631.118C381.563 629.742 382.653 627.797 384.266 627.143C385.984 626.447 388.197 626.966 390.194 626.966C416.987 626.965 443.78 626.966 470.574 626.966C471.739 626.966 472.905 626.998 474.068 626.963C476.901 626.876 479.053 627.594 479.085 630.993C479.117 634.389 477.021 635.191 473.692 635.077Z" fill="#4086C2"/>
<path d="M404 601.333C413.665 601.328 422.831 601.289 431.996 601.337C435.452 601.354 439.145 601.58 438.959 606.351C438.789 610.731 435.353 610.827 432.027 610.824C410.696 610.802 389.365 610.794 368.035 610.82C364.629 610.825 361.231 610.499 361.261 606.172C361.29 602.02 364.564 601.321 368.004 601.324C379.836 601.334 391.668 601.331 404 601.333Z" fill="#4E92C9"/>
<path d="M470.156 660.776C454.769 660.847 439.799 660.842 424.828 660.89C421.602 660.9 418.516 660.616 418.389 656.495C418.264 652.461 421.367 651.539 424.503 651.516C438.974 651.408 453.449 651.336 467.915 651.629C469.971 651.671 471.985 653.789 474.018 654.946C472.869 656.87 471.721 658.795 470.156 660.776Z" fill="#4E92C9"/>
<path d="M451.604 610.799C448.13 610.365 445.601 608.63 446.599 605.635C447.215 603.785 450.089 601.924 452.225 601.517C455.763 600.843 459.672 600.725 463.134 601.567C465.29 602.091 468.135 604.593 468.492 606.597C469.049 609.715 466.026 610.823 463.035 610.81C459.369 610.794 455.703 610.808 451.604 610.799Z" fill="#4E92C9"/>
<path d="M471.457 685.851C467.328 686.225 463.531 686.73 459.77 686.536C457.092 686.397 453.878 685.115 454.787 681.808C455.303 679.931 458.021 678.004 460.125 677.385C462.724 676.622 465.784 676.82 468.514 677.321C470.374 677.661 472.824 678.867 473.494 680.365C474.061 681.632 472.452 683.873 471.457 685.851Z" fill="#4E92C9"/>
<path d="M491.391 660.782C490.501 660.843 489.951 660.997 489.516 660.838C487.327 660.033 484.912 659.48 483.129 658.116C482.466 657.608 482.777 654.176 483.562 653.743C485.725 652.55 488.432 651.588 490.81 651.802C492.418 651.947 494.98 654.19 495.037 655.581C495.106 657.25 492.967 659.01 491.391 660.782Z" fill="#4E92C9"/>
<path d="M475.847 610.403C474.761 608.259 473.095 605.987 473.595 604.395C474.038 602.984 476.896 601.53 478.675 601.546C480.836 601.564 483.827 602.512 484.953 604.116C486.923 606.92 485.282 609.597 482.06 610.491C480.242 610.995 478.168 610.574 475.847 610.403Z" fill="#4E92C9"/>
<path d="M412.911 384.855C417.726 387.691 419.296 391.732 419.233 396.796C419.041 412.443 418.903 428.091 418.917 443.738C418.933 462.597 433.643 481.833 451.898 487.181C454.421 487.92 456.889 488.848 459.521 490.462C455.275 490.938 451.023 491.873 446.784 491.814C422.104 491.465 403.506 477.163 395.49 454.276C393.83 449.535 393.324 444.212 393.218 439.138C392.921 424.825 393.242 410.501 393.05 396.184C392.945 388.402 402.395 378.98 412.911 384.855ZM401.072 393.529C400.549 395.527 399.742 397.522 399.721 399.525C399.716 399.98 402.79 401.225 403.81 400.746C405.141 400.122 406.926 397.304 406.612 396.898C405.413 395.343 403.451 394.375 401.072 393.529Z" fill="#F6F9FB"/>
<path d="M501.065 461.977C491.302 477.561 476.992 483.245 459.855 480.62C446.153 478.522 433.913 469.198 429.166 453.298C427.722 448.463 427.6 443.195 427.29 438.099C427.242 437.306 429.691 435.422 430.558 435.652C446.515 439.887 462.391 444.428 478.32 448.771C486.746 451.069 495.24 453.114 504.351 455.438C503.108 457.915 502.17 459.783 501.065 461.977Z" fill="#F7FAFC"/>
<path d="M419.971 531.074C426.773 532.388 433.598 533.59 440.371 535.041C450.065 537.119 459.721 539.379 469.943 541.685C468.697 548.112 467.595 554.244 466.298 560.334C465.369 564.69 463.745 568.941 463.241 573.331C462.844 576.788 461.325 577.296 458.403 577.271C446.241 577.166 434.077 577.201 421.914 577.242C418.446 577.254 414.978 577.46 411.243 576.884C411.177 574.398 411.234 572.576 411.6 570.819C414.356 557.563 417.173 544.321 419.971 531.074Z" fill="#B2E8F9"/>
<path d="M419.606 530.944C417.173 544.321 414.356 557.563 411.6 570.819C411.234 572.576 411.177 574.398 410.977 576.624C410.55 577.12 410.123 577.181 409.234 576.956C408.165 576.858 407.558 577.046 406.95 577.235C403.967 577.148 400.984 577.061 398 576.974C398.29 574.179 398.336 571.333 398.91 568.597C401.524 556.134 404.218 543.687 407.119 531.288C407.359 530.258 409.41 528.885 410.517 528.973C413.456 529.206 416.338 530.151 419.606 530.944Z" fill="#DFF6FD"/>
<path d="M441.567 500.769C441.759 509.575 441.759 517.983 441.759 526.354C435.289 526.711 434.089 525.679 434.076 520.128C434.064 514.816 434.064 509.503 434.075 504.19C434.088 498.428 435.618 497.632 441.567 500.769ZM440.074 511.556C439.25 507.853 442.352 502.806 435.964 500.436C435.964 507.725 435.902 514.607 436.044 521.485C436.062 522.316 437.179 523.125 437.786 523.944C438.538 523.109 439.853 522.328 439.94 521.429C440.225 518.484 440.064 515.496 440.074 511.556Z" fill="#B2E8F9"/>
<path d="M407.114 577.433C407.558 577.046 408.165 576.857 408.909 576.938C408.457 577.349 407.867 577.49 407.114 577.433Z" fill="#B2E8F9"/>
<path d="M401.423 393.359C403.451 394.375 405.413 395.343 406.612 396.898C406.926 397.304 405.141 400.122 403.81 400.746C402.79 401.225 399.716 399.98 399.721 399.525C399.742 397.522 400.549 395.527 401.423 393.359Z" fill="#4E92C9"/>
<path d="M440.074 512.04C440.064 515.496 440.225 518.484 439.94 521.429C439.853 522.328 438.538 523.109 437.786 523.944C437.179 523.125 436.062 522.316 436.044 521.485C435.902 514.607 435.964 507.725 435.964 500.436C442.352 502.806 439.25 507.853 440.074 512.04Z" fill="white"/>
</g>
<defs>
<clipPath id="clip0_44_111">
<rect width="1406" height="950" fill="white"/>
</clipPath>
</defs>
</svg>
